# xmcd
#
# Track frame offsets:
#	150
#	17338
#	32774
#	52730
#	69311
#	90298
#	113950
#	135564
#	152059
#	174548
#	198954
#	222133
#
# Disc length: 3212 seconds
#
# Revision: 1
# Processed by: cddbd v1.5.2PL0 Copyright (c) Steve Scherf et al.
# Submitted via: audiograbber 1.83.01
#
DISCID=8e0c8a0c
DTITLE=Hint - Crosspop
DYEAR=1900
DGENRE=pop
TTITLE0=I Want It
TTITLE1=Our Love
TTITLE2=I've Got My Reasons
TTITLE3=Crosspop
TTITLE4=Stay
TTITLE5=Some Nights
TTITLE6=Coming Home
TTITLE7=Noise Of The Night
TTITLE8=Lover Or Friend
TTITLE9=Everytime You Come Around
TTITLE10=Don't Leave Me Behind
TTITLE11=Look At Live
EXTD=
EXTT0=
EXTT1=
EXTT2=
EXTT3=
EXTT4=
EXTT5=
EXTT6=
EXTT7=
EXTT8=
EXTT9=
EXTT10=
EXTT11=
PLAYORDER=
